<svg xmlns="http://www.w3.org/2000/svg" viewBox="0 0 64 64">
  <defs>
    <linearGradient id="g" x1="0" y1="0" x2="0" y2="1"><stop offset="0" stop-color="#f0dca8"/><stop offset="1" stop-color="#a8842f"/></linearGradient>
    <g id="a" stroke="url(#g)" stroke-width="1.8" stroke-linecap="round" fill="none"><path d="M42 32 L42 23.2"/><path d="M42 25.2 L40.2 23.7 M42 25.2 L43.8 23.7"/><path d="M42 27.8 L40.6 26.7 M42 27.8 L43.4 26.7"/></g>
  </defs>
  <rect width="64" height="64" rx="12" fill="#0a0a0b"/>
  <circle cx="32" cy="32" r="27.5" fill="none" stroke="url(#g)" stroke-width="2"/>
  <g transform="translate(4.5,12.8) scale(0.72)"><path d="M28 6 C 37.5 18.5, 30.5 24.5, 27.8 28.8 C 32.4 27.2, 34 21.6, 33.4 18.9 C 39.6 25.8, 38.6 41.2, 28 47.4 C 18 42.2, 17.4 31, 24.8 24.6 C 24.2 28.2, 25.8 30, 27.4 30.6 C 22.6 23.8, 24.8 12.4, 28 6 Z" fill="url(#g)"/></g>
  <use href="#a"/><use href="#a" transform="rotate(60 42 32)"/><use href="#a" transform="rotate(120 42 32)"/><use href="#a" transform="rotate(180 42 32)"/><use href="#a" transform="rotate(240 42 32)"/><use href="#a" transform="rotate(300 42 32)"/>
  <circle cx="42" cy="32" r="1.5" fill="url(#g)"/>
</svg>
