<svg xmlns="http://www.w3.org/2000/svg" viewBox="0 0 64 64">
  <defs>
    <linearGradient id="g" x1="0" y1="0" x2="0" y2="1"><stop offset="0" stop-color="#f0dca8"/><stop offset="1" stop-color="#a8842f"/></linearGradient>
    <g id="a" stroke="#f0dca8" stroke-width="1.5" stroke-linecap="round" fill="none"><path d="M40 21 L40 10.5"/><path d="M40 13 L37.7 11.1 M40 13 L42.3 11.1"/><path d="M40 15.6 L38.4 14.3 M40 15.6 L41.6 14.3"/></g>
  </defs>
  <rect width="64" height="64" rx="12" fill="#0a0a0b"/>
  <path d="M28 6 C 37.5 18.5, 30.5 24.5, 27.8 28.8 C 32.4 27.2, 34 21.6, 33.4 18.9 C 39.6 25.8, 38.6 41.2, 28 47.4 C 18 42.2, 17.4 31, 24.8 24.6 C 24.2 28.2, 25.8 30, 27.4 30.6 C 22.6 23.8, 24.8 12.4, 28 6 Z" fill="url(#g)"/>
  <use href="#a"/><use href="#a" transform="rotate(60 40 21)"/><use href="#a" transform="rotate(120 40 21)"/><use href="#a" transform="rotate(180 40 21)"/><use href="#a" transform="rotate(240 40 21)"/><use href="#a" transform="rotate(300 40 21)"/>
  <circle cx="40" cy="21" r="1.5" fill="#f0dca8"/>
</svg>
